<?xml version="1.0" encoding="UTF-8"?>
<!-- Generator: Adobe Illustrator 23.0.2, SVG Export Plug-In . SVG Version: 6.00 Build 0)  -->
<svg version="1.1" id="nervous" xmlns="http://www.w3.org/2000/svg" xmlns:xlink="http://www.w3.org/1999/xlink" x="0px" y="0px" viewBox="0 0 512 512" style="enable-background:new 0 0 512 512;" xml:space="preserve">
<style type="text/css">
	.st0{fill:#313131;}
	.st1{fill:#7BC7E9;}
</style>
<g>
	<path class="st0" d="M423.5,343.7c2.1,3.7,5.9,5.8,10,5.8c6.4,0,11.7-5.2,11.7-11.7s-5.2-11.7-11.7-11.7c-4.2,0-7.9,2.2-10,5.8   l-0.6,1H413c-22.6,0-42,16.9-45.3,39.2l-0.2,1.7h-24.8v-43c0-8.6,7-15.7,15.7-15.7c14,0,25.3-11.4,25.3-25.3v-23.5l1-0.6   c3.7-2.1,5.8-5.9,5.8-10c0-6.4-5.2-11.7-11.7-11.7s-11.7,5.2-11.7,11.7c0,4.2,2.2,7.9,5.8,10l1,0.6v23.5c0,8.6-7,15.7-15.7,15.7   c-14,0-25.3,11.4-25.3,25.3v43h-18.3l-0.5-1.3c-2.6-7.4-9.6-12.3-17.3-12.3h-157c-4.9,0-8.8-4-8.8-8.8s4-8.8,8.8-8.8H210   c16.3,0,31-8.4,39.4-22.4c8.3-14,8.6-31,0.8-45.3l-18.9-34.7c-3.6-6.6-10.8-10.3-18.4-9.5l-0.3,0.2l-0.4,0.1   c-5.3,0.9-10,4-12.8,8.7l-0.2,0.4l-0.3,0.2c-0.7,1.3-1.2,2.4-1.5,3.6c-1.4,4.7-0.9,9.7,1.5,14.1l18.9,34.7c1.6,2.8,1.5,5.9-0.2,8.7   c-1.6,2.8-4.3,4.3-7.6,4.3h-70.1c-25.2,0-45.8,20.5-45.8,45.8c0,25.2,20.5,45.8,45.8,45.8h157c7.7,0,14.7-5,17.3-12.3l0.5-1.3h32   V405c0,20.6-16.8,37.3-37.3,37.3h-15.5l-0.6-1c-2.1-3.7-5.9-5.8-10-5.8c-6.4,0-11.7,5.2-11.7,11.7s5.2,11.7,11.7,11.7   c4.2,0,7.9-2.2,10-5.8l0.6-1h15.5c25.9,0,47-21.1,47-47v-21.3h36.1c8.6,0,15.7,7,15.7,15.7c0,8.6-7,15.7-15.7,15.7h-3l-0.6-1   c-2.1-3.7-5.9-5.8-10-5.8c-6.4,0-11.7,5.2-11.7,11.7s5.2,11.7,11.7,11.7c4.2,0,7.9-2.2,10-5.8l0.6-1h3c14,0,25.3-11.4,25.3-25.3   c0-14-11.4-25.3-25.3-25.3h-15.4l0.5-2.4c3.4-16.8,18.3-28.9,35.4-28.9h9.9L423.5,343.7z M297,387.7h-157   c-19.9,0-36.1-16.2-36.1-36.1s16.2-36.1,36.1-36.1H210c6.6,0,12.5-3.4,15.9-9c3.4-5.7,3.5-12.5,0.3-18.3l-18.9-34.7   c-1.1-2.1-1.4-4.5-0.7-6.7c0.7-2.3,2.2-4.1,4.2-5.3c4.3-2.3,9.6-0.7,12,3.5l18.9,34.7c6.2,11.3,5.9,24.7-0.6,35.7   c-6.6,11.1-18.2,17.7-31.1,17.7h-70.1c-10.2,0-18.5,8.3-18.5,18.5s8.3,18.5,18.5,18.5h157c4.9,0,8.8,4,8.8,8.8   S301.8,387.7,297,387.7z"/>
	<polygon class="st0" points="212.4,229.2 212.4,228.9 212.2,228.9  "/>
</g>
<path class="st1" d="M284.5,128.4L284.5,128.4c-25.8-6.5-40.3,21.4-45.3,33.7l-0.4,0.9l-1,0.2c-8,2-15,5.4-20.6,10l-1.4,1.1  l-1.3-1.2c-3.4-3.2-9-9.4-8.9-14.8c0-1,0.1-4.2,5.3-7.6c10.2-6.8,19.4-16.1,26.1-26.4l0.3-0.5l27.7-13.8c1.2-0.6,2-1.6,2.4-2.8  c0.4-1.2,0.3-2.5-0.3-3.7c-1.2-2.4-4.1-3.3-6.5-2.2l-15.8,7.9l1.3-4.4c2.8-9.6,3.1-18.9,0.9-27.7c-0.3-1.3-1.1-2.3-2.2-3  c-1.1-0.7-2.4-0.8-3.6-0.5c-1.3,0.3-2.3,1.1-3,2.2c-0.7,1.1-0.9,2.4-0.5,3.6c0.5,2.2,0.9,4.5,1.1,7.2l0.3,5.3l-3.8-3.8  c-9-9.1-23.6-13.6-33.4-14.7c-1.3-0.2-2.5,0.2-3.5,0.9c-1,0.8-1.7,2-1.8,3.3c-0.3,2.6,1.6,5,4.2,5.3c1.4,0.2,34.7,4.3,33.1,26.9  l0,0.4l-0.2,0.3c-5.7,12.1-16,23.8-28.2,31.9c-2.1,1.4-3.9,3-5.4,4.8l-0.7,0.9l-34.6-5.8l-0.2-1.4c-0.8-4.4-2.4-8.7-4.9-13l-0.6-1.1  l0.7-1c5.3-8.2,5.5-19.1,5.5-20.4c0-2.6-2.2-4.8-4.8-4.8c-2.7,0-4.8,2.2-4.8,4.8c0,1.7-0.3,5.9-1.6,10l-1,3.2l-2.4-2.4  c-0.1-0.1-0.2-0.2-0.3-0.3c-0.1-0.1-0.1-0.1-0.2-0.2c-8.2-8.2-15.1-16.8-20.5-25.5l-0.7-1.2l0.9-1.1c9-11.3,14.5-28.1,14.7-28.8  c0.8-2.5-0.6-5.2-3.1-6.1c-2.5-0.8-5.3,0.6-6.1,3.1c-0.7,2-4.1,11.8-9.3,20.4l-2,3.3l-1.5-3.6c-4.7-11.2-5-18.3-5-18.6  c0-2.7-2.2-4.9-4.8-4.9s-4.8,2.2-4.8,4.8c0,0.6,0.2,15.4,13.2,36.9l1.8,2.9l-3.4,0.2c-8.7,0.4-24.3,0.5-31.9-3.3  c-2.4-1.2-5.3-0.2-6.5,2.2c-1.2,2.4-0.2,5.3,2.2,6.5c5.9,3,15.7,4.5,28.3,4.5c6.7,0,12.8-0.4,16.8-0.8l1.1-0.1l0.7,0.9  c4.2,5.3,8.6,10.3,13.4,15.1c8.9,8.9,12.9,17.9,12.1,26.8c-1.2,12.6-11.8,22.2-16.3,25.8l-1.1,0.9l-1.2-0.8  c-7.7-5.1-17.7-8-29.9-8.6l-1.3-0.1l-9-22c-1-2.5-3.8-3.6-6.3-2.6c-1.2,0.5-2.1,1.4-2.6,2.6c-0.5,1.2-0.5,2.5,0,3.7l7.6,18.6  l-2.7,0.2c-5.5,0.5-10.2,1.1-15,1.9c-1.3,0.2-2.4,0.9-3.1,2c-0.7,1.1-1,2.3-0.8,3.6c0.2,1.3,1,2.4,2,3.1c1.1,0.7,2.3,1,3.6,0.7  c25.8-4.7,45-2.1,55.6,7.4c6.7,6,8.7,13.6,9.2,18.8l0.1,1.4l-1.2,0.6c-5,2.5-8.5,5.6-11.5,8.3c-1.6,1.4-3,2.7-4.7,3.9l-2.3,1.8  l-0.8-2.9c-0.1-0.2-0.1-0.4-0.1-0.6c-0.1-0.3-0.2-0.6-0.3-0.9c-2.3-5.9-7.6-10.3-16-13.1c-1.2-0.4-2.5-0.3-3.7,0.3  c-1.1,0.6-2,1.6-2.4,2.8c-0.4,1.2-0.3,2.5,0.3,3.7c0.6,1.2,1.6,2,2.8,2.4c5.4,1.8,8.8,4.3,10,7.3c0.5,1.4,0.7,2.9,0.3,4.6l-0.2,1.2  l-1.1,0.4c-5.4,1.7-12,2.9-20,3.6l-0.2,0l-0.2,0c-7.3-0.8-14.3-15.9-16.5-23c-0.4-1.2-1.2-2.3-2.4-2.9c-1.1-0.6-2.4-0.7-3.6-0.3  c-2.6,0.8-4,3.5-3.2,6c0.7,2.3,3.5,10.6,8.4,17.9l2.1,3.1l-4.6,0c-0.4,0-0.8,0-1.3,0c-2.7,0-4.8,2.2-4.8,4.8s2.2,4.8,4.8,4.8  c11.4,0,20.9-0.6,29.3-1.7l4.4-0.6l-2.5,3.7c-3.8,5.6-9,12.1-14.3,17.8c-0.9,0.9-1.3,2.2-1.3,3.5c0,1.3,0.6,2.5,1.5,3.4  c0.9,0.8,2.1,1.3,3.3,1.3c1.3,0,2.6-0.6,3.5-1.5c4-4.3,17.3-19,20.9-30l0.3-0.9l0.9-0.3c10.2-3.5,15.2-8,20.1-12.3  c4.5-4,8.4-7.5,16.8-9.6c16-4,32.9,12,42.5,23.2c3.2-4.3,7.8-7.3,12.9-8.6c-1.5-11.8-1.7-31.6,10.2-44.1  c6.3-6.6,15.5-10.7,27.5-12.1l1.2-0.1l0.7,1c3.1,4.6,8.3,13.6,8.3,22.4c0,2.7,2.2,4.8,4.8,4.8c2.7,0,4.8-2.2,4.8-4.8  c0-6.3-1.9-13.3-5.8-20.8l-1.6-3.1l3.5,0.2c4.4,0.2,8.2,0.6,12,1.1c1.3,0.2,2.6-0.1,3.6-0.9c1-0.8,1.7-1.9,1.9-3.2  c0.2-1.3-0.1-2.5-0.9-3.6s-1.9-1.7-3.2-1.9c-8.2-1.2-16.2-1.6-23.7-1.3l-3.5,0.2l1.6-3.1c6-11.3,16.2-24,30.5-20.5  c2.6,0.6,5.2-0.9,5.9-3.5c0.3-1.2,0.1-2.5-0.5-3.6C286.8,129.5,285.8,128.8,284.5,128.4z M208.5,183.1c-6.2,9.6-9.1,21.8-8.6,36.4  l0.2,5l-3.6-3.5c-9.8-9.5-24.8-20.4-40.8-18l-1.9,0.3l-0.3-1.9c-0.7-4.3-2.6-10.7-7-16.8l-1.1-1.5l1.4-1.2  c5.5-4.6,15.1-14.4,17.8-27.5l0.4-1.9l31.1,5.2l0.1,1.6c0.3,9,7.7,17.2,12.1,21.3l1.2,1.1L208.5,183.1z"/>
</svg>