<svg xmlns="http://www.w3.org/2000/svg" viewBox="0 0 512 512"><path d="M423.5 343.7c2.1 3.7 5.9 5.8 10 5.8 6.4 0 11.7-5.2 11.7-11.7s-5.2-11.7-11.7-11.7c-4.2 0-7.9 2.2-10 5.8l-.6 1H413c-22.6 0-42 16.9-45.3 39.2l-.2 1.7h-24.8v-43c0-8.6 7-15.7 15.7-15.7 14 0 25.3-11.4 25.3-25.3v-23.5l1-.6c3.7-2.1 5.8-5.9 5.8-10 0-6.4-5.2-11.7-11.7-11.7s-11.7 5.2-11.7 11.7c0 4.2 2.2 7.9 5.8 10l1 .6v23.5c0 8.6-7 15.7-15.7 15.7-14 0-25.3 11.4-25.3 25.3v43h-18.3l-.5-1.3c-2.6-7.4-9.6-12.3-17.3-12.3h-157c-4.9 0-8.8-4-8.8-8.8s4-8.8 8.8-8.8H210c16.3 0 31-8.4 39.4-22.4 8.3-14 8.6-31 .8-45.3l-18.9-34.7c-3.6-6.6-10.8-10.3-18.4-9.5l-.3.2-.4.1c-5.3.9-10 4-12.8 8.7l-.2.4-.3.2c-.7 1.3-1.2 2.4-1.5 3.6-1.4 4.7-.9 9.7 1.5 14.1l18.9 34.7c1.6 2.8 1.5 5.9-.2 8.7-1.6 2.8-4.3 4.3-7.6 4.3h-70.1c-25.2 0-45.8 20.5-45.8 45.8 0 25.2 20.5 45.8 45.8 45.8h157c7.7 0 14.7-5 17.3-12.3l.5-1.3h32V405c0 20.6-16.8 37.3-37.3 37.3h-15.5l-.6-1c-2.1-3.7-5.9-5.8-10-5.8-6.4 0-11.7 5.2-11.7 11.7s5.2 11.7 11.7 11.7c4.2 0 7.9-2.2 10-5.8l.6-1h15.5c25.9 0 47-21.1 47-47v-21.3h36.1c8.6 0 15.7 7 15.7 15.7 0 8.6-7 15.7-15.7 15.7h-3l-.6-1c-2.1-3.7-5.9-5.8-10-5.8-6.4 0-11.7 5.2-11.7 11.7s5.2 11.7 11.7 11.7c4.2 0 7.9-2.2 10-5.8l.6-1h3c14 0 25.3-11.4 25.3-25.3 0-14-11.4-25.3-25.3-25.3h-15.4l.5-2.4c3.4-16.8 18.3-28.9 35.4-28.9h9.9l.6.6zm-126.5 44H140c-19.9 0-36.1-16.2-36.1-36.1s16.2-36.1 36.1-36.1h70c6.6 0 12.5-3.4 15.9-9 3.4-5.7 3.5-12.5.3-18.3l-18.9-34.7c-1.1-2.1-1.4-4.5-.7-6.7.7-2.3 2.2-4.1 4.2-5.3 4.3-2.3 9.6-.7 12 3.5l18.9 34.7c6.2 11.3 5.9 24.7-.6 35.7-6.6 11.1-18.2 17.7-31.1 17.7h-70.1c-10.2 0-18.5 8.3-18.5 18.5s8.3 18.5 18.5 18.5h157c4.9 0 8.8 4 8.8 8.8s-3.9 8.8-8.7 8.8zm-84.6-158.5v-.3h-.2z" fill="#313131"/><path d="M284.5 128.4c-25.8-6.5-40.3 21.4-45.3 33.7l-.4.9-1 .2c-8 2-15 5.4-20.6 10l-1.4 1.1-1.3-1.2c-3.4-3.2-9-9.4-8.9-14.8 0-1 .1-4.2 5.3-7.6 10.2-6.8 19.4-16.1 26.1-26.4l.3-.5L265 110c1.2-.6 2-1.6 2.4-2.8.4-1.2.3-2.5-.3-3.7-1.2-2.4-4.1-3.3-6.5-2.2l-15.8 7.9 1.3-4.4c2.8-9.6 3.1-18.9.9-27.7-.3-1.3-1.1-2.3-2.2-3-1.1-.7-2.4-.8-3.6-.5-1.3.3-2.3 1.1-3 2.2-.7 1.1-.9 2.4-.5 3.6.5 2.2.9 4.5 1.1 7.2l.3 5.3-3.8-3.8c-9-9.1-23.6-13.6-33.4-14.7-1.3-.2-2.5.2-3.5.9-1 .8-1.7 2-1.8 3.3-.3 2.6 1.6 5 4.2 5.3 1.4.2 34.7 4.3 33.1 26.9v.4l-.2.3c-5.7 12.1-16 23.8-28.2 31.9-2.1 1.4-3.9 3-5.4 4.8l-.7.9-34.6-5.8-.2-1.4c-.8-4.4-2.4-8.7-4.9-13l-.6-1.1.7-1c5.3-8.2 5.5-19.1 5.5-20.4 0-2.6-2.2-4.8-4.8-4.8-2.7 0-4.8 2.2-4.8 4.8 0 1.7-.3 5.9-1.6 10l-1 3.2-2.4-2.4-.3-.3-.2-.2c-8.2-8.2-15.1-16.8-20.5-25.5L129 89l.9-1.1c9-11.3 14.5-28.1 14.7-28.8.8-2.5-.6-5.2-3.1-6.1-2.5-.8-5.3.6-6.1 3.1-.7 2-4.1 11.8-9.3 20.4l-2 3.3-1.5-3.6c-4.7-11.2-5-18.3-5-18.6 0-2.7-2.2-4.9-4.8-4.9s-4.8 2.2-4.8 4.8c0 .6.2 15.4 13.2 36.9l1.8 2.9-3.4.2c-8.7.4-24.3.5-31.9-3.3-2.4-1.2-5.3-.2-6.5 2.2-1.2 2.4-.2 5.3 2.2 6.5 5.9 3 15.7 4.5 28.3 4.5 6.7 0 12.8-.4 16.8-.8l1.1-.1.7.9c4.2 5.3 8.6 10.3 13.4 15.1 8.9 8.9 12.9 17.9 12.1 26.8-1.2 12.6-11.8 22.2-16.3 25.8l-1.1.9-1.2-.8c-7.7-5.1-17.7-8-29.9-8.6l-1.3-.1-9-22c-1-2.5-3.8-3.6-6.3-2.6-1.2.5-2.1 1.4-2.6 2.6-.5 1.2-.5 2.5 0 3.7l7.6 18.6-2.7.2c-5.5.5-10.2 1.1-15 1.9-1.3.2-2.4.9-3.1 2-.7 1.1-1 2.3-.8 3.6.2 1.3 1 2.4 2 3.1 1.1.7 2.3 1 3.6.7 25.8-4.7 45-2.1 55.6 7.4 6.7 6 8.7 13.6 9.2 18.8l.1 1.4-1.2.6c-5 2.5-8.5 5.6-11.5 8.3-1.6 1.4-3 2.7-4.7 3.9l-2.3 1.8-.8-2.9c-.1-.2-.1-.4-.1-.6l-.3-.9c-2.3-5.9-7.6-10.3-16-13.1-1.2-.4-2.5-.3-3.7.3-1.1.6-2 1.6-2.4 2.8-.4 1.2-.3 2.5.3 3.7.6 1.2 1.6 2 2.8 2.4 5.4 1.8 8.8 4.3 10 7.3.5 1.4.7 2.9.3 4.6l-.2 1.2-1.1.4c-5.4 1.7-12 2.9-20 3.6h-.4c-7.3-.8-14.3-15.9-16.5-23-.4-1.2-1.2-2.3-2.4-2.9-1.1-.6-2.4-.7-3.6-.3-2.6.8-4 3.5-3.2 6 .7 2.3 3.5 10.6 8.4 17.9l2.1 3.1h-5.9c-2.7 0-4.8 2.2-4.8 4.8s2.2 4.8 4.8 4.8c11.4 0 20.9-.6 29.3-1.7l4.4-.6-2.5 3.7c-3.8 5.6-9 12.1-14.3 17.8-.9.9-1.3 2.2-1.3 3.5 0 1.3.6 2.5 1.5 3.4.9.8 2.1 1.3 3.3 1.3 1.3 0 2.6-.6 3.5-1.5 4-4.3 17.3-19 20.9-30l.3-.9.9-.3c10.2-3.5 15.2-8 20.1-12.3 4.5-4 8.4-7.5 16.8-9.6 16-4 32.9 12 42.5 23.2 3.2-4.3 7.8-7.3 12.9-8.6-1.5-11.8-1.7-31.6 10.2-44.1 6.3-6.6 15.5-10.7 27.5-12.1l1.2-.1.7 1c3.1 4.6 8.3 13.6 8.3 22.4 0 2.7 2.2 4.8 4.8 4.8 2.7 0 4.8-2.2 4.8-4.8 0-6.3-1.9-13.3-5.8-20.8l-1.6-3.1 3.5.2c4.4.2 8.2.6 12 1.1 1.3.2 2.6-.1 3.6-.9s1.7-1.9 1.9-3.2c.2-1.3-.1-2.5-.9-3.6s-1.9-1.7-3.2-1.9c-8.2-1.2-16.2-1.6-23.7-1.3l-3.5.2 1.6-3.1c6-11.3 16.2-24 30.5-20.5 2.6.6 5.2-.9 5.9-3.5.3-1.2.1-2.5-.5-3.6-1-.7-2-1.4-3.3-1.8zm-76 54.7c-6.2 9.6-9.1 21.8-8.6 36.4l.2 5-3.6-3.5c-9.8-9.5-24.8-20.4-40.8-18l-1.9.3-.3-1.9c-.7-4.3-2.6-10.7-7-16.8l-1.1-1.5 1.4-1.2c5.5-4.6 15.1-14.4 17.8-27.5l.4-1.9 31.1 5.2.1 1.6c.3 9 7.7 17.2 12.1 21.3l1.2 1.1-1 1.4z" fill="#7bc7e9"/></svg>